<?xml version="1.0" encoding="utf-8"?>
<!-- Generator: Adobe Illustrator 17.0.0, SVG Export Plug-In . SVG Version: 6.00 Build 0)  -->
<!DOCTYPE svg PUBLIC "-//W3C//DTD SVG 1.1//EN" "http://www.w3.org/Graphics/SVG/1.1/DTD/svg11.dtd">
<svg version="1.1" id="Layer_1" xmlns="http://www.w3.org/2000/svg" xmlns:xlink="http://www.w3.org/1999/xlink" x="0px" y="0px"
	 width="247.787px" height="49.323px" viewBox="0 0 247.787 49.323" enable-background="new 0 0 247.787 49.323"
	 xml:space="preserve">
<text transform="matrix(1 0 0 1 56.0353 43.1699)" fill="#e4a979" font-family="'OpenSans'" font-size="48">Starbuzz</text>
<g>

		<radialGradient id="SVGID_1_" cx="310.0807" cy="-477.5395" r="48.8554" gradientTransform="matrix(0.6 0 0 -0.6 -160.1189 -262.769)" gradientUnits="userSpaceOnUse">
		<stop  offset="0" style="stop-color:#faefe6"/>
		<stop  offset="1" style="stop-color:#faefe6"/>
	</radialGradient>
	<path fill="url(#SVGID_1_)" stroke="#d2691e" stroke-width="2.1019" d="M22.398,43.28l-9.963,4.414
		c-1.766,0.757-2.018,0.504-1.766-1.387c0.252-3.657,0.631-7.189,1.009-10.846c0.378-2.901-0.126-4.54-2.144-6.684l-7.189-8.071
		c-1.387-1.513-1.261-1.766,0.631-2.144c3.531-0.883,7.062-1.639,10.72-2.396c2.901-0.504,4.162-1.513,5.549-4.036l5.549-9.459
		c1.009-1.639,1.261-1.639,2.27,0l5.549,9.459c1.387,2.522,2.648,3.531,5.549,4.036c3.657,0.757,7.189,1.513,10.72,2.396
		c1.892,0.378,2.018,0.631,0.631,2.144l-7.189,8.071c-2.018,2.144-2.522,3.783-2.144,6.684c0.378,3.657,0.757,7.189,1.009,10.846
		c0.252,1.892,0,2.144-1.766,1.387l-9.963-4.414C26.812,42.019,25.047,42.019,22.398,43.28z"/>
	<path fill="#FFFFFF" stroke="#d2691e" stroke-width="2.1019" d="M23.533,37.227l-6.684,3.027c-1.261,0.504-1.387,0.378-1.261-1.009
		c0.252-2.396,0.504-4.792,0.757-7.315c0.252-1.892-0.126-3.027-1.513-4.414l-4.918-5.549c-0.883-1.009-0.757-1.135,0.504-1.387
		c2.396-0.631,4.792-1.135,7.189-1.639c2.018-0.378,2.901-1.009,3.783-2.775l3.783-6.306c0.631-1.135,0.883-1.135,1.513,0
		l3.783,6.306c0.883,1.766,1.766,2.396,3.783,2.775c2.396,0.504,4.792,1.009,7.189,1.639c1.261,0.252,1.387,0.378,0.504,1.387
		l-4.918,5.549c-1.387,1.387-1.766,2.522-1.513,4.414c0.252,2.522,0.504,4.918,0.757,7.315c0.126,1.387,0,1.513-1.261,1.009
		l-6.684-3.027C26.434,36.344,25.425,36.344,23.533,37.227z"/>
</g>
</svg>
